# xmcd CD database file generated by Grip 3.3.1
#
# Track frame offsets:
#       150
#       12612
#       31077
#       42050
#       56247
#       81342
#       114137
#       136205
#       152732
#       174397
#       192340
#       208702
#
# Disc length: 3038 seconds
#
# Revision: 0
# Processed by: cddbd v1.5.2PL0 Copyright (c) Steve Scherf et al.
# Submitted via: Grip 3.3.1
#
DISCID=9a0bdc0c
DTITLE=The Guess Who - 36 All-Time Greatest Hits Disc II
DYEAR=2006
DGENRE=Rock
TTITLE0=Rain Dance
TTITLE1=Sour Suite
TTITLE2=Albert Flasher
TTITLE3=Broken
TTITLE4=One Way Road to Hell
TTITLE5=Ballad of the Last Five Years
TTITLE6=Heartbroken Bopper
TTITLE7=Follow Your Daughter Home
TTITLE8=Glamour Boy
TTITLE9=Proper Stranger
TTITLE10=When You Touch Me
TTITLE11=Runnin Down the Street
EXTD=
EXTT0=
EXTT1=
EXTT2=
EXTT3=
EXTT4=
EXTT5=
EXTT6=
EXTT7=
EXTT8=
EXTT9=
EXTT10=
EXTT11=
PLAYORDER=
